HIERARCHY
ROOT Bip001_Pelvis
{
  OFFSET 7.937 94.8971 -8.5489
  CHANNELS 6 Xposition Yposition Zposition Zrotation Xrotation Yrotation
  JOINT Bip001_Spine
  {
    OFFSET 1.44608e-005 10.4157 -0.0118244
    CHANNELS 3 Zrotation Xrotation Yrotation
    JOINT Bip001_L_Thigh
    {
      OFFSET 11.2582 -10.4157 0.0118432
      CHANNELS 3 Zrotation Xrotation Yrotation
      JOINT Bip001_L_Calf
      {
        OFFSET -0.720717 -44.8687 0.366937
        CHANNELS 3 Zrotation Xrotation Yrotation
        JOINT Bip001_L_Foot
        {
          OFFSET -0.664439 -41.3745 -3.62995
          CHANNELS 3 Zrotation Xrotation Yrotation
          JOINT Bip001_L_Toe0
          {
            OFFSET 0.0541047 -10.4146 13.4033
            CHANNELS 3 Zrotation Xrotation Yrotation
            End Site
            {
              OFFSET -1.04503e-005 0 7.70137
            }
          }
        }
      }
    }
    JOINT Bip001_R_Thigh
    {
      OFFSET -11.2582 -10.4156 0.0118122
      CHANNELS 3 Zrotation Xrotation Yrotation
      JOINT Bip001_R_Calf
      {
        OFFSET 0.72059 -44.8687 0.36676
        CHANNELS 3 Zrotation Xrotation Yrotation
        JOINT Bip001_R_Foot
        {
          OFFSET 0.664321 -41.3745 -3.62979
          CHANNELS 3 Zrotation Xrotation Yrotation
          JOINT Bip001_R_Toe0
          {
            OFFSET -0.05417 -10.4146 13.4033
            CHANNELS 3 Zrotation Xrotation Yrotation
            End Site
            {
              OFFSET -1.04873e-005 0 7.70137
            }
          }
        }
      }
    }
    JOINT Bip001_Spine1
    {
      OFFSET 1.90638e-005 14.8539 1.10727
      CHANNELS 3 Zrotation Xrotation Yrotation
      JOINT Bip001_Spine2
      {
        OFFSET 2.28934e-005 14.7848 -1.7233
        CHANNELS 3 Zrotation Xrotation Yrotation
        JOINT Bip001_Neck
        {
          OFFSET 2.24514e-005 15.6905 -0.498826
          CHANNELS 3 Zrotation Xrotation Yrotation
          JOINT Bip001_L_Clavicle
          {
            OFFSET 6.17691 -0.000591152 0.00852867
            CHANNELS 3 Zrotation Xrotation Yrotation
            JOINT Bip001_L_UpperArm
            {
              OFFSET 11.773 -0.0611878 0.00197697
              CHANNELS 3 Zrotation Xrotation Yrotation
              JOINT Bip001_L_Forearm
              {
                OFFSET 26.4515 0.0817568 -2.19579
                CHANNELS 3 Zrotation Xrotation Yrotation
                JOINT Bip001_L_Hand
                {
                  OFFSET 32.8677 0.156744 1.67112
                  CHANNELS 3 Zrotation Xrotation Yrotation
                  JOINT Bip001_L_Finger0
                  {
                    OFFSET 6.16268 -2.25226 6.01674
                    CHANNELS 3 Zrotation Xrotation Yrotation
                    End Site
                    {
                      OFFSET 4.30499 -1.46662 0.618148
                    }
                  }
                  JOINT Bip001_L_Finger1
                  {
                    OFFSET 11.2957 -0.718374 -0.201963
                    CHANNELS 3 Zrotation Xrotation Yrotation
                    End Site
                    {
                      OFFSET 6.31952 -0.405163 -0.0802303
                    }
                  }
                }
              }
            }
          }
          JOINT Bip001_R_Clavicle
          {
            OFFSET -6.17691 -0.000574027 0.00851165
            CHANNELS 3 Zrotation Xrotation Yrotation
            JOINT Bip001_R_UpperArm
            {
              OFFSET -11.773 -0.0611516 0.00194365
              CHANNELS 3 Zrotation Xrotation Yrotation
              JOINT Bip001_R_Forearm
              {
                OFFSET -26.4514 0.0822334 -2.19736
                CHANNELS 3 Zrotation Xrotation Yrotation
                JOINT Bip001_R_Hand
                {
                  OFFSET -32.8677 0.156817 1.67144
                  CHANNELS 3 Zrotation Xrotation Yrotation
                  JOINT Bip001_R_Finger0
                  {
                    OFFSET -6.1627 -2.25224 6.0167
                    CHANNELS 3 Zrotation Xrotation Yrotation
                    End Site
                    {
                      OFFSET -4.30499 -1.46662 0.618134
                    }
                  }
                  JOINT Bip001_R_Finger1
                  {
                    OFFSET -11.2958 -0.718344 -0.201994
                    CHANNELS 3 Zrotation Xrotation Yrotation
                    End Site
                    {
                      OFFSET -6.31952 -0.405146 -0.0802475
                    }
                  }
                }
              }
            }
          }
          JOINT Bip001_Head
          {
            OFFSET 1.11782e-005 11.4912 2.09908
            CHANNELS 3 Zrotation Xrotation Yrotation
            End Site
            {
              OFFSET 2.95144e-005 21.2823 -2.83069e-005
            }
          }
        }
      }
    }
  }
}
MOTION
Frames:	12
Frame Time:	0.04
8.83424 94.9059 -6.50896 0.522043 1.20823 22.1119 -1.14678 0.0410729 2.28581 2.64274 -13.2491 2.57603 0.855943 18.2852 -12.3401 -1.54779 -5.74987 -4.52944 0.704669 -10.2183 -1.07663 -7.60826 -0.667544 -8.10131 1.45988 16.1757 -2.9261 -1.98725 -11.9896 -19.0563 2.66213 -11.8294 -1.26122 -1.77529 0.0466634 4.57492 -1.77433 0.0466584 4.57503 -0.596704 -0.038998 -5.04194 -28.3202 3.93647 -9.49652 -52.7738 37.9106 13.9742 14.4352 6.84012 -23.6538 -5.1315 0.047294 -1.62632 1.59028e-015 -6.36111e-015 -0 1.59028e-015 -3.18056e-015 -0 8.04957 2.55866 13.0626 31.2996 -20.5771 43.29 -54.3117 7.45031 68.085 -27.4396 11.2525 -7.41099 3.18055e-015 6.36111e-015 -3.97569e-015 1.59028e-015 3.18056e-015 -1.59028e-015 -1.4576 4.02778 -4.71133 
8.723 94.9287 -6.55059 0.542402 1.06068 20.9619 -1.07098 0.104694 1.95671 2.89478 -12.9922 4.28512 1.14391 18.212 -12.5706 -1.70149 -5.81975 -4.51088 0.689229 -10.237 -1.13696 -7.51157 -1.0018 -7.66886 0.993437 16.1933 -1.83539 -1.73115 -11.88 -19.0368 2.30857 -11.789 -1.23085 -1.6883 0.180421 3.91981 -1.68829 0.180422 3.91982 -1.60442 -0.320723 -4.33402 -27.7692 3.95221 -8.04182 -52.8989 40.6101 14.0172 14.066 7.3361 -22.059 -6.81234 -0.176623 -1.6762 1.76556e-031 -3.18055e-015 3.18055e-015 7.95139e-016 -6.36111e-015 2.38542e-015 10.9989 3.5629 14.5465 31.7319 -22.5686 40.2699 -56.1331 6.46338 75.6687 -29.2806 11.387 -6.29207 -1.59028e-015 -3.18055e-015 3.97569e-015 1.98626e-031 -3.18056e-015 3.57812e-015 -0.683545 4.83964 -4.50099 
8.74042 94.9914 -6.49747 0.767398 0.600727 19.1645 -0.973016 0.204179 1.86774 3.07101 -12.0479 4.22331 0.662839 17.806 -11.3357 -1.70271 -5.91742 -3.79066 0.698711 -10.2137 -1.05511 -7.76551 -0.911008 -7.46279 0.744479 15.9537 -1.28296 -1.25459 -11.6655 -17.9798 1.82347 -11.7748 -0.988583 -1.59599 0.382232 3.74257 -1.59599 0.382232 3.74258 -2.44672 0.295869 -4.11515 -27.7225 3.50942 -8.14795 -52.7925 42.2913 14.3199 14.1082 8.99285 -20.5645 -9.43756 -0.443311 -1.48897 -1.19271e-015 1.59028e-014 -1.19271e-015 -2.38542e-015 1.27222e-014 -7.95139e-016 14.8552 3.52797 14.1483 32.2893 -23.141 36.3152 -54.4037 4.31636 84.7426 -30.2251 10.1348 -4.73933 6.36111e-015 -6.36111e-015 -3.97569e-015 3.18055e-015 -3.18056e-015 -4.77083e-015 0.253251 4.28986 -4.80104 
8.75753 95.0766 -6.57473 1.06768 0.0555267 16.8892 -0.949019 0.34029 1.78121 3.20871 -10.9057 3.72619 0.0938962 17.0971 -9.1246 -1.80928 -5.86542 -3.19384 0.716097 -10.1731 -0.917169 -8.12572 -1.04338 -6.99557 0.621421 15.8613 -0.334201 -0.96067 -11.3597 -17.0661 1.42723 -11.7537 -0.814827 -1.63347 0.655057 3.57118 -1.63471 0.655058 3.57114 -1.54331 -0.191816 -4.57614 -28.5246 3.71606 -7.73372 -53.7631 42.9051 14.9081 14.4192 9.74885 -19.9304 -10.8268 -0.519144 -0.538853 -3.97569e-016 -1.27222e-014 3.97569e-016 -3.97569e-016 -1.27222e-014 3.97569e-016 16.9014 4.55288 13.9104 28.8531 -18.3899 30.3439 -53.4136 0.884861 89.1078 -32.873 9.28878 -3.69111 7.95139e-015 6.36111e-015 3.97569e-015 4.77083e-015 6.36111e-015 7.95139e-015 -0.951548 5.30121 -4.64194 
8.67426 95.1446 -6.6932 1.08526 -0.394243 14.4554 -0.823458 0.439542 1.53128 3.57566 -10.0591 4.38505 -0.275439 16.7143 -7.67817 -1.90633 -5.94836 -2.65334 0.719265 -10.1443 -0.825512 -8.26891 -1.46187 -6.0991 0.485586 15.7874 0.482559 -0.776483 -10.97 -16.1828 1.13439 -11.7474 -0.640227 -1.44736 0.859616 3.07264 -1.44736 0.859617 3.07265 -2.28378 -0.414208 -4.27335 -28.1093 3.82433 -7.03189 -54.7734 44.0629 15.0068 14.6364 9.2037 -19.3599 -11.1166 -0.600611 0.251167 1.98785e-016 0 -9.93923e-017 1.98785e-016 -3.18056e-015 -9.93923e-017 20.3953 5.44762 14.1663 26.195 -11.5919 23.3683 -53.9835 -1.84677 92.1047 -35.323 8.44478 -1.49304 -3.18055e-015 -3.18055e-015 3.18055e-015 -3.18055e-015 -6.36111e-015 7.95139e-015 -0.564421 5.82482 -4.6521 
8.60657 95.2368 -6.82436 1.05964 -0.795238 12.1922 -0.674911 0.538642 1.26293 3.77302 -9.1934 5.4563 -0.318858 16.1381 -6.77593 -2.08468 -5.91213 -2.17925 0.719302 -10.1179 -0.755792 -8.43326 -1.79289 -5.58578 0.341452 15.495 1.26685 -0.535428 -10.449 -15.1036 0.845273 -11.7514 -0.392877 -1.21777 1.06376 2.53614 -1.21777 1.06376 2.53614 -2.37243 -0.749241 -4.30161 -28.2897 4.05938 -6.66036 -55.9672 44.2637 15.5325 14.9637 7.36021 -19.9538 -10.2837 -0.600116 0.77993 -7.95139e-016 6.36111e-015 -1.98785e-016 -5.96354e-016 9.54167e-015 -0 22.426 6.17863 14.0293 26.4454 -3.71553 16.1727 -55.7746 -3.16357 93.4169 -35.2664 7.4444 1.57896 -5.29669e-031 9.54166e-015 3.18055e-015 3.18055e-015 1.27222e-014 3.18055e-015 -0.673425 5.86859 -4.66093 
8.44679 95.3099 -6.98336 0.904738 -1.02161 10.1671 -0.530826 0.622749 0.946686 4.08574 -8.65678 6.2991 -0.425075 15.756 -5.74506 -2.29535 -5.9067 -1.7867 0.725034 -10.0917 -0.687245 -8.41416 -2.29195 -4.92672 0.197024 15.227 1.98899 -0.178548 -9.91674 -14.2607 0.504424 -11.7331 -0.187583 -1.00326 1.23714 1.9028 -1.00326 1.23713 1.90279 -2.48286 -0.867685 -4.268 -28.3458 4.23657 -6.73255 -55.36 42.1689 14.093 13.871 6.50853 -20.1043 -8.08129 -0.409278 -0.0444087 7.95139e-016 -3.18055e-015 3.97569e-016 7.95139e-016 0 3.97569e-016 24.8411 6.88637 14.3429 28.714 3.61031 8.01235 -56.16 -2.06367 92.6171 -30.6422 6.99704 2.36521 3.18055e-015 6.36111e-015 -3.18055e-015 5.29669e-031 9.54167e-015 -3.18055e-015 -0.349801 5.54085 -4.7515 
8.22769 95.3522 -7.09958 0.749847 -1.19635 8.37359 -0.402279 0.707294 0.629969 4.4524 -8.23572 6.73274 -0.702082 15.5166 -4.74533 -2.45657 -5.9852 -1.17485 0.737201 -10.054 -0.60572 -8.32794 -2.83168 -4.29756 0.0647905 15.1687 2.54026 0.140482 -9.62868 -13.4394 0.149578 -11.6989 -0.0196824 -0.803399 1.41025 1.26799 -0.803737 1.4103 1.26775 -2.60251 -1.05581 -4.14084 -28.6897 4.52939 -6.82919 -54.633 41.9025 13.0137 12.9576 4.35785 -20.3967 -5.78628 -0.256332 -1.39546 7.95139e-016 3.18055e-015 -0 0 6.36111e-015 -0 28.5257 7.96349 14.7058 31.2415 10.0617 -0.408161 -49.8485 1.22165 90.2073 -21.5319 8.56814 -2.45896 1.59028e-015 1.59028e-015 9.54166e-015 1.59028e-015 1.59028e-015 9.54166e-015 -0.160286 5.44272 -4.70917 
8.11005 95.3798 -7.23959 0.704854 -1.72023 6.42201 -0.339729 0.856516 0.50143 4.63264 -7.50097 7.08546 -0.831859 15.2781 -4.14021 -2.56022 -6.10461 -0.165182 0.739633 -10.0148 -0.520912 -8.34557 -3.1739 -3.49659 0.0957637 15.2973 3.18935 0.258877 -9.42843 -12.851 -0.0876288 -11.6715 0.078259 -0.709369 1.70989 1.00978 -0.708657 1.7099 1.00974 -1.74127 -0.832442 -4.3227 -28.9659 4.5742 -7.96684 -54.7313 41.6183 12.136 12.1303 2.42491 -20.6784 -2.97417 -0.0353697 -2.39689 -6.62086e-031 9.54166e-015 3.97569e-015 -5.29669e-031 1.27222e-014 2.38542e-015 29.8748 8.20522 14.7065 36.6829 14.1 -7.24464 -38.0197 5.1529 84.0852 -9.8747 8.22884 -8.33124 -3.18055e-015 7.95139e-016 -3.18055e-015 -3.18055e-015 0 -4.77083e-015 -0.821491 5.02596 -4.47591 
8.11655 95.4173 -7.16873 0.904594 -2.03268 4.86765 -0.322884 0.970719 0.248533 4.37777 -6.61366 7.31721 -0.790538 14.5715 -3.32489 -2.72657 -6.06198 0.490102 0.738321 -9.9831 -0.462278 -8.69476 -3.43865 -3.63482 -0.00969978 15.4728 4.11901 0.45765 -9.41794 -11.9178 -0.272951 -11.6717 0.23784 -0.694775 1.93989 0.502606 -0.696675 1.93988 0.502871 -1.59404 -0.633885 -4.01512 -28.3695 4.58978 -8.63823 -54.4439 41.828 10.5251 11.7584 1.27435 -21.0381 -1.4514 -0.106019 -2.38949 -8.82781e-032 -3.18055e-015 -1.59028e-015 1.59028e-015 0 -1.59028e-015 31.7668 8.54462 15.1406 42.5126 20.5689 -11.8782 -28.5758 1.72148 71.1925 2.85976 4.8367 -17.0292 1.59028e-014 0 -1.59028e-015 1.59028e-014 1.59028e-015 -3.18055e-015 -0.780185 4.75978 -4.15477 
7.88912 95.4406 -7.44502 0.548431 -2.09109 3.33493 -0.176506 0.992715 -0.0303825 4.84727 -6.55285 7.33955 -1.09848 14.6903 -2.09336 -2.86416 -6.18905 0.947382 0.73368 -9.93798 -0.349251 -8.33149 -4.05862 -2.9375 -0.173395 15.4132 4.48438 0.572234 -9.01691 -11.3192 -0.421764 -11.6721 0.387876 -0.422048 1.98554 -0.0585266 -0.422048 1.98554 -0.0585276 -1.67077 0.0483135 -3.42434 -28.0192 4.13896 -9.14925 -53.7558 42.1209 9.06194 11.5317 -0.138552 -21.594 -1.15897 -0.125539 -2.47471 -0 -3.18055e-015 -0 -1.59028e-015 3.18056e-015 1.59028e-015 33.0337 8.19793 15.732 46.9377 27.661 -13.2142 -16.5301 -5.63709 56.9844 7.46836 3.01916 -24.1504 -2.64834e-031 -3.18055e-015 -4.77083e-015 -3.18055e-015 0 -3.18055e-015 -0.538998 4.2411 -3.68943 
7.78403 95.4637 -7.59975 0.31103 -2.66555 1.69107 -0.0239757 1.1156 -0.174831 5.13352 -5.88776 7.89535 -1.30719 14.7056 -1.15548 -2.93913 -6.32443 1.1729 0.700618 -9.91765 -0.316752 -8.12843 -4.13327 -2.11647 -0.318119 15.2901 5.0054 0.680018 -8.66116 -10.8881 -0.540476 -11.668 0.470429 -0.131099 2.2314 -0.350635 -0.131099 2.2314 -0.350635 -1.83381 0.330361 -2.95762 -28.2351 4.08875 -9.49185 -52.3452 42.7836 7.56266 11.2307 -0.97345 -22.2509 -1.14605 -0.34501 -2.47869 -1.59028e-015 -3.18055e-015 1.59028e-015 1.59028e-015 0 -0 33.3168 7.87721 15.8688 49.3603 31.198 -12.5964 -1.51889 -17.0113 47.0185 3.16438 3.56034 -29.2579 1.59028e-015 0 1.59028e-015 1.59028e-015 -6.36111e-015 1.59028e-015 -0.385424 4.22796 -3.3281 
